<svg xmlns="http://www.w3.org/2000/svg" viewBox="0 0 64 64" fill="#ffffff">
  <path d="M32 4C18.767 4 8 14.767 8 28c0 12.628 9.793 22.995 22.189 23.93-.146-2.083-.189-4.445.856-6.19 1.137-1.896 3.798-2.446 6.955-3.1 4.798-.996 10.234-2.125 12.98-8.046.75-1.62 1.02-3.457 1.02-5.094C54 14.767 45.233 4 32 4zm-7.3 27.95c-2.018 0-3.65-1.634-3.65-3.65 0-2.018 1.632-3.65 3.65-3.65 2.017 0 3.65 1.632 3.65 3.65 0 2.016-1.633 3.65-3.65 3.65zm14.6 0c-2.017 0-3.65-1.634-3.65-3.65 0-2.018 1.633-3.65 3.65-3.65 2.018 0 3.65 1.632 3.65 3.65 0 2.016-1.632 3.65-3.65 3.65z"/>
</svg>
